<?xml version="1.0" ?><svg height="512" id="Layer_1" version="1.1" viewBox="0 0 512 512" width="512" xml:space="preserve" xmlns="http://www.w3.org/2000/svg" xmlns:cc="http://creativecommons.org/ns#" xmlns:dc="http://purl.org/dc/elements/1.1/" xmlns:inkscape="http://www.inkscape.org/namespaces/inkscape" xmlns:rdf="http://www.w3.org/1999/02/22-rdf-syntax-ns#" xmlns:sodipodi="http://sodipodi.sourceforge.net/DTD/sodipodi-0.dtd" xmlns:svg="http://www.w3.org/2000/svg"><defs id="defs12"/><g id="g6680"><rect height="512" id="rect2987" rx="64" ry="64" style="fill:#4673e6;fill-opacity:1;fill-rule:nonzero;stroke:none" width="512" x="0" y="1.7053026e-013"/><path d="M 255.9847,72.698684 C 146.76266,72.721234 56.4194,136.90436 56.00006,219.52359 c 0.27208,71.2321 67.74545,128.65696 156.10875,143.14816 -10.02704,20.15605 -24.99435,36.15864 -38.02368,47.30753 -14.42335,12.38369 -26.10493,18.51543 -26.10493,18.62887 -2.43616,1.32559 -3.55272,4.26533 -2.6351,6.89386 0.80457,2.27733 2.97454,3.79931 5.33139,3.79931 0.32855,0 0.6825,-0.12256 1.01105,-0.12256 C 238.18139,423.6565 277.38016,389.1424 294.59059,363.46829 385.51457,350.43886 455.72796,292.14932 455.99994,219.52359 455.55805,136.91583 365.24077,72.698684 255.9847,72.698684 z m 10.0192,25.247012 c 91.24097,10.842694 160.36751,61.877954 160.36751,123.354894 0,47.9717 -42.08183,89.60889 -103.8988,110.76217 36.98135,-25.28879 60.48255,-62.51702 60.48255,-104.14402 0,-60.13987 -48.89147,-111.14258 -116.95126,-129.973044 z m -24.91004,53.496634 20.46725,0 -1.01116,125.71428 -20.43655,0 0.98046,-125.71428 z m 38.72845,0 20.46724,0 -1.01115,80.61281 0.33708,0 35.87901,-44.42741 14.58444,12.25584 -29.50597,33.18262 29.50597,37.71739 -16.79049,11.58176 -33.67296,-46.60286 -0.33708,0 0,41.39413 -20.43656,0 0.98047,-125.71428 z m -171.98007,11.36733 20.43666,0 -0.67407,30.17995 18.78211,-0.33699 0,15.44236 -18.78211,0 -0.49024,24.78747 c -0.16913,8.38388 -0.18384,16.11055 -0.18384,22.30563 0,5.5214 1.86191,8.88538 6.89386,8.88538 3.52047,0 6.52109,-1.99711 9.37582,-4.01374 l 5.8828,12.40908 -6.89396,3.67675 c -5.36482,3.01514 -10.20127,3.33967 -12.71538,3.33967 -14.07774,0 -22.97979,-7.35762 -22.97979,-25.3083 0,-3.84549 -0.019,-12.90187 0.15325,-20.28341 l 0.52092,-25.79853 -11.39793,0 0,-15.44236 11.39793,0.33699 0.67397,-30.17995 z m 86.00538,27.51436 c 12.57027,0 24.14399,7.87765 24.14399,24.29724 0,3.01523 0.0113,4.85792 -0.15314,7.04701 l -0.67417,24.29724 c -0.16453,3.84549 -0.33699,7.06191 -0.33699,10.57071 0,4.68732 2.32665,8.02747 4.50397,8.02747 1.01037,0 2.51558,-0.49935 6.03605,-2.17536 l 4.87164,10.23362 c -8.88528,5.86614 -13.72987,6.86327 -17.58702,6.86327 -7.20526,0 -13.07668,-4.16943 -14.58445,-11.21409 -6.03448,7.04466 -13.58819,11.21409 -21.63164,11.21409 -15.08419,0 -25.30821,-9.51945 -25.30821,-24.60364 0,-13.58437 8.71498,-25.3482 45.25463,-31.37494 l 0,-5.51512 c 0,-9.39033 -4.01119,-11.24468 -9.7127,-11.24468 -4.19013,0 -9.23012,1.6712 -21.96864,11.55117 l -9.7128,-10.8771 c 18.44004,-15.07645 27.80967,-17.09689 36.85948,-17.09689 z m 4.38151,46.26578 c -19.4506,4.35847 -25.64539,9.05431 -25.64539,17.58712 0,6.21077 4.35259,9.89654 10.72386,9.89654 4.19012,0 9.71692,-2.67383 14.58444,-7.87433 l 0.33709,-19.60933 z" id="path241-2" style="fill:#ffffff;fill-opacity:1"/></g></svg>